<?xml version="1.0" encoding="UTF-8" standalone="no"?>
<!-- Created with Inkscape (http://www.inkscape.org/) -->

<svg
   xmlns:dc="http://purl.org/dc/elements/1.1/"
   xmlns:cc="http://creativecommons.org/ns#"
   xmlns:rdf="http://www.w3.org/1999/02/22-rdf-syntax-ns#"
   xmlns:svg="http://www.w3.org/2000/svg"
   xmlns="http://www.w3.org/2000/svg"
   xmlns:sodipodi="http://sodipodi.sourceforge.net/DTD/sodipodi-0.dtd"
   xmlns:inkscape="http://www.inkscape.org/namespaces/inkscape"
   version="1.1"
   id="svg815"
   width="1028"
   height="578.66669"
   viewBox="0 0 1028 578.66669"
   sodipodi:docname="Track.svg"
   inkscape:version="0.92.3 (2405546, 2018-03-11)">
  <metadata
     id="metadata821">
    <rdf:RDF>
      <cc:Work
         rdf:about="">
        <dc:format>image/svg+xml</dc:format>
        <dc:type
           rdf:resource="http://purl.org/dc/dcmitype/StillImage" />
        <dc:title></dc:title>
      </cc:Work>
    </rdf:RDF>
  </metadata>
  <defs
     id="defs819" />
  <sodipodi:namedview
     pagecolor="#ffffff"
     bordercolor="#666666"
     borderopacity="1"
     objecttolerance="10"
     gridtolerance="10"
     guidetolerance="10"
     inkscape:pageopacity="0"
     inkscape:pageshadow="2"
     inkscape:window-width="1920"
     inkscape:window-height="1027"
     id="namedview817"
     showgrid="false"
     inkscape:zoom="1.4007782"
     inkscape:cx="473.92088"
     inkscape:cy="272.26739"
     inkscape:window-x="1912"
     inkscape:window-y="-8"
     inkscape:window-maximized="1"
     inkscape:current-layer="svg815" />
  <path
     style="fill:#000000;stroke-width:1.33333337"
     d="m 784.21388,482.4272 c -19.06666,-3.31031 -69.33576,-12.06204 -111.70909,-19.44828 -97.82379,-17.05199 -85.18308,-17.82746 -106.35259,6.5244 -21.84196,25.12541 -34.15826,32.2691 -52.60498,30.5119 -5.13334,-0.489 -22.23334,-4.50184 -38,-8.91742 C 301.97319,442.48686 305.94754,443.74129 297.04748,434.75792 289.65114,427.29234 284.48911,418.00245 275.63134,396.21606 251.40167,336.6214 247.71138,334.93558 158.88055,342.88121 93.856475,348.69739 84.637383,347.99305 61.183082,335.41702 27.01341,317.09548 13.713112,282.70827 17.062163,221.34468 c 4.380463,-80.26182 20.325255,-95.8535 116.399027,-113.8212 6.55268,-1.22548 13.38692,-2.78816 15.1872,-3.47263 13.20425,-5.020249 105.95831,-25.481589 116.23216,-25.640569 23.17583,-0.35861 32.82827,8.0536 48.09763,41.917639 16.21056,35.95142 17.35561,36.41738 70.56904,28.71688 17.96666,-2.59996 58.76666,-8.37174 90.66666,-12.82616 31.9,-4.45443 64.6,-9.04951 72.66667,-10.21127 54.36276,-7.82937 93.2714,30.18728 73.68521,71.99596 -17.62388,37.61996 -53.52446,41.67066 -137.91012,15.56054 -12.29237,-3.80343 -19.01686,-3.88994 -23.47956,-0.30202 -23.62249,18.99202 -52.5554,23.00455 -94.97077,13.17094 -106.90852,-24.78575 -229.07395,-51.55007 -235.29966,-51.55007 -41.615565,0 -52.565645,51.90593 -15.10855,71.61808 20.48887,10.78246 21.2087,10.8159 266.41678,12.37535 200.94399,1.27795 237.55172,1.9896 274.66667,5.33945 33.59805,3.03244 44.77564,4.15483 59.33333,5.9579 65.1976,8.07514 118.34268,9.33344 192.66667,4.56169 69.82253,-4.48276 87.52781,-0.0828 98.66905,24.52041 18.2456,40.29183 -5.64018,65.77393 -75.33572,80.37067 -49.20008,10.30427 -49.31178,10.38867 -52.00084,39.29191 -2.89556,31.12287 -11.37808,51.91353 -30.49149,59.87234 -13.73652,5.71986 -23.56384,10.57165 -63.50767,3.63668 z M 526.9521,472.92741 c 4.99282,-2.48967 10.45386,-7.71121 22.4779,-21.49216 23.54463,-26.98487 30.84632,-29.53801 66.55456,-23.27188 8.19279,1.43768 20.29599,3.55504 26.89599,4.70525 188.89941,32.92012 181.27024,31.8194 190.66667,27.50899 12.75838,-5.85264 17.31301,-14.52984 19.37921,-36.92012 4.50048,-48.769 10.76517,-54.71551 71.28745,-67.6667 54.75428,-11.71689 70.62735,-24.17409 58.94711,-46.26176 -6.53188,-12.35197 -18.78941,-13.88951 -78.94711,-9.90283 -68.74374,4.5557 -118.39434,3.18079 -196.66666,-5.44602 -79.44555,-8.75612 -76.60783,-8.65203 -273.33334,-10.02534 -300.575,-2.09825 -305.8957,-2.3478 -330.96783,-15.52282 -61.053199,-32.08257 -42.366124,-118.02265 25.6345,-117.89062 9.51728,0.0185 21.80233,2.3678 76.66667,14.66133 123.86224,27.754 161.3837,36.25215 177.46338,40.19323 20.96942,5.13955 25.0521,5.07028 36.34478,-0.61663 41.34464,-20.82082 44.71185,-21.04998 100.16606,-6.81669 59.06019,15.15883 88.69694,5.31041 79.47555,-26.41007 -7.89788,-27.16775 -10.1394,-27.29844 -142.78311,-8.32531 -143.98204,20.59497 -140.76138,21.25907 -166.17753,-34.26572 -11.05959,-24.16105 -13.02259,-26.26528 -24.51052,-26.27384 -6.18327,-0.004 -82.27459,17.20652 -174.413647,39.45071 -40.205917,9.70651 -49.182004,26.74689 -49.450365,93.87764 -0.245492,61.40994 23.833188,90.44423 71.218732,85.87622 3.3,-0.31813 17.1,-1.48257 30.66667,-2.58765 13.56666,-1.10508 35.09702,-2.91816 47.84524,-4.02908 61.43436,-5.35352 81.599,8.50785 108.23822,74.40401 7.37762,18.24963 10.24827,22.6905 13.50265,25.65683 3.57341,3.25711 7.73691,5.77387 15.1912,8.90676 5.93381,2.06367 10.04728,3.85259 51.22269,14.2836 21.03333,5.3284 58.4,16.2983 83.33333,23.26404 59.8692,16.72595 54.3506,15.78396 64.07155,10.93663 z"
     id="path825"
     inkscape:connector-curvature="0"
     sodipodi:nodetypes="ssscssssssscsssscssssssssssssscscssssssssssscssssssscsscscsscssc" />
</svg>
